<svg version="1" xmlns="http://www.w3.org/2000/svg" width="933.333" height="933.333" viewBox="0 0 700.000000 700.000000"><path d="M0 350v350h700V0H0v350zm192.1-176.3c10.2 5.2 15.4 16.2 12.6 26.8-.8 3-16.9 32.8-40.1 74-21.4 37.9-41.2 73.3-44.1 78.5-5.5 9.8-8.8 13.7-14 16.3-7.6 3.8-17.2 2.9-24.5-2.4-6.8-5-10.9-15.6-9.1-24 1.3-5.8 87.8-160.2 92.6-165.1 7-7.2 17.3-8.8 26.6-4.1zm348.1.4c2 1 4.8 3.3 6.1 5.1 1.3 1.8 20.3 38.8 42.2 82.2 36.9 73.3 39.8 79.4 40.3 85.1.9 11.2-5.1 22.5-14.2 26.6-4.4 2-12.9 2.5-16.9 1-7.4-2.8-8.2-4.2-50.3-88.3-38.8-77.5-40.5-81.2-40.6-86.7-.2-11.1 4.7-19.8 13.7-24.8 6.5-3.6 12.8-3.6 19.7-.2zM376.8 318.7c8.4 5.2 13.5 15.7 11.8 24.6-.7 3.6-3.9 9.4-48 85.7-16.4 28.3-31 53.1-32.5 55-4.1 5.1-10.4 7.9-17.9 8-3.4 0-7.7-.6-9.5-1.3-11.9-5-18-19.9-12.8-31.4 1.1-2.3 13.8-24.8 28.4-50 14.5-25.2 31-53.9 36.7-63.8 11.3-19.8 14-23.8 17.6-26.1 7.9-5.3 18.4-5.5 26.2-.7zm-85.7 341.4c.4.8.4 1.8 0 2.4-.5.5-1.1 2.5-1.5 4.3-1.3 7.4-7.2 12.2-14.8 12.2-4.4 0-9.5-1.9-5.3-2 1.1 0 2.7-.4 3.4-.9 1.2-.8 1.1-1.3-1-3-1.3-1.1-2-2-1.5-2.1.5 0 .2-.7-.5-1.6-.7-.9-1.5-3.6-1.6-6l-.3-4.4 3.6 2.5c4.4 3 8.4 3.3 8.4.7 0-3.1 2.2-4.4 6.4-3.9 2.1.3 4.2 1.1 4.7 1.8zm20 3.6c1.3 1.5 1.2 1.5-.6.6-3.2-1.8-5.5.1-5.5 4.6 0 3.8 1.9 5.9 4.1 4.5.5-.3.9 0 .9.5 0 1.5-3.3 1.4-4.8-.1-1.7-1.7-1.5-7.8.5-10s3.7-2.3 5.4-.1zm9.7-.1c4.6 3.2 1.7 11.4-4 11.4-1.5 0-1.8-.9-1.8-6.5 0-7.1 1.2-8.2 5.8-4.9zm38.8 1.6l.7 3.3 1.4-3.3c2.1-5 3.3-3.8 3.3 3.4 0 4.1-.4 6.3-1 5.9-.5-.3-1-2.3-1.1-4.3 0-3.5-.1-3.6-1.1-1.2l-1 2.5-1.3-3-1.3-3-.4 5c-.4 4.5-.5 4.3-.6-1.8-.2-7 1.1-9 2.4-3.5zM401 664c0 1.4.5 1.8 1.6 1.3 1.1-.4 2.2.1 3 1.2 1.6 2.2 1.8 7.1.4 8-.6.4-1-1-1-3.4 0-3.4-.3-4.1-2-4.1-1.6 0-2 .7-2 3.4 0 1.9-.4 3.8-1 4.1-.6.4-1-1.8-1-5.9 0-3.7.4-6.6 1-6.6s1 .9 1 2zm-7.4 1c.8 0 1.4.4 1.4 1 0 .5-.7 1-1.5 1-1 0-1.5 1-1.5 3 0 2.7.8 3.5 3.3 3.1.4 0 .7.4.7 1s-1 .9-2.2.7c-1.9-.2-2.4-1-2.6-4.1-.2-2.6-.8-3.7-1.9-3.7-1.4 0-1.4-.3.3-1.9 1-1 2.1-1.4 2.2-1 .2.5 1 .9 1.8.9zm-83.6 3.1c0 1.7.4 2.8 1 2.4.6-.3 1-1.6 1-2.7 0-1.2.3-1.9.6-1.5.4.3.4 1.8 0 3.2-.5 2-1.3 2.5-3.6 2.5-3.1 0-3.8-1.7-2.4-5.4 1.1-2.8 3.4-1.8 3.4 1.5zm21.8-1.9c.7.7 1.2 2 1.2 3 0 1.3-.8 1.8-3 1.8-1.6 0-3 .4-3 1 0 1.1 1.2 1.3 4.5 1.1 1.7-.2 1.7 0 .5.8-.8.6-2 1.1-2.7 1.1-1.8 0-4.3-2.9-4.3-5s2.5-5 4.4-5c.6 0 1.7.5 2.4 1.2zm9.2 3c.7-1.7 1.6-3.2 2-3.2.9 0-1.6 6.8-3 8.3-.4.5-1.5-1-2.4-3.3-2.2-5.5-1.9-7.5.4-2.5l1.8 4 1.2-3.3zm32.1-3.2c3.7 2 1.9 9-2.3 9-3.4 0-4.9-5.7-2.2-8.4 1.8-1.9 2-1.9 4.5-.6zm10.3-.4c1.1.4 1.6 1.9 1.6 4.9 0 4.1-.1 4.2-3.2 4.1-2.6-.1-3.4-.6-3.6-2.4-.3-1.8.2-2.3 2.7-2.8 1.7-.4 2.8-1.1 2.5-1.6-.4-.5-1.8-.7-3.3-.4-2.5.6-2.5.6-.7-.9 2.3-1.7 2-1.7 4-.9zm-31.1 10.1c-1.3.2-3.3.2-4.5 0-1.3-.2-.3-.4 2.2-.4s3.5.2 2.3.4z"/><path d="M316 668.6c0 4.1.2 4.5 2.1 4.2 4.3-.6 4.2-8.8-.1-8.8-1.7 0-2 .6-2 4.6zM307.8 666.6c-.5.4-.8 1.6-.8 2.8 0 1.4.3 1.7 1.1.9.6-.6.9-1.9.7-2.8-.1-.9-.6-1.3-1-.9zM327 668c0 .5 1.2 1 2.6 1 1.4 0 2.3-.4 1.9-1-.3-.6-1.5-1-2.6-1-1 0-1.9.4-1.9 1zM369 669.9c0 3.5 1.5 4.8 3.6 3 2.2-1.8 1.4-5.3-1.3-5.7-2-.3-2.3.1-2.3 2.7zM380 671c-1.2.8-1.2 1 .2 1.5 1.9.7 3.8-.1 3.8-1.6 0-1.2-2.1-1.1-4 .1z"/></svg>