<?xml version="1.0" standalone="no"?>
<!DOCTYPE svg PUBLIC "-//W3C//DTD SVG 20010904//EN"
        "http://www.w3.org/TR/2001/REC-SVG-20010904/DTD/svg10.dtd">
<svg version="1.0" xmlns="http://www.w3.org/2000/svg"
     width="260.000000pt" height="260.000000pt" viewBox="0 0 260.000000 260.000000"
     preserveAspectRatio="xMidYMid meet">
    <metadata>
        Created by potrace 1.11, written by Peter Selinger 2001-2013
    </metadata>
    <g transform="translate(0.000000,260.000000) scale(0.100000,-0.100000)"
       fill="#000000" stroke="none">
        <path d="M0 1300 l0 -1300 1300 0 1300 0 0 1300 0 1300 -1300 0 -1300 0 0
-1300z m376 -422 l20 -63 20 60 c18 51 24 60 47 63 l27 3 0 -90 c0 -74 -3 -91
-15 -91 -12 0 -15 13 -15 57 0 64 -8 63 -31 -5 -22 -66 -42 -66 -68 0 l-20 53
0 -52 c-1 -46 -4 -53 -21 -53 -19 0 -20 7 -20 90 l0 90 28 0 c26 0 30 -5 48
-62z m289 37 c35 -34 35 -96 0 -130 -56 -56 -145 -16 -145 65 0 54 34 90 85
90 25 0 44 -8 60 -25z m161 -22 c9 -27 23 -63 31 -82 17 -44 17 -51 -6 -51
-10 0 -21 9 -24 20 -4 15 -14 20 -40 20 -26 0 -36 -5 -40 -20 -3 -12 -14 -20
-26 -20 -22 0 -23 -6 38 153 17 44 46 35 67 -20z m174 32 c0 -9 -9 -15 -25
-15 -24 0 -25 -2 -25 -75 0 -68 -2 -75 -20 -75 -18 0 -20 7 -20 75 0 73 -1 75
-25 75 -16 0 -25 6 -25 15 0 12 14 15 70 15 56 0 70 -3 70 -15z m60 -20 c0
-33 2 -35 35 -35 33 0 35 2 35 35 0 28 4 35 20 35 19 0 20 -7 20 -90 0 -83 -1
-90 -20 -90 -17 0 -20 7 -20 40 0 39 -1 40 -35 40 -34 0 -35 -1 -35 -40 0 -33
-3 -40 -20 -40 -19 0 -20 7 -20 90 0 83 1 90 20 90 16 0 20 -7 20 -35z"/>
        <path d="M572 898 c-7 -7 -12 -28 -12 -48 0 -41 14 -60 45 -60 30 0 45 19 45
56 0 52 -47 83 -78 52z"/>
        <path d="M776 868 c-9 -35 -8 -38 15 -38 16 0 19 4 14 23 -11 35 -22 41 -29
15z"/>
    </g>
</svg>
