<?xml version="1.0" standalone="no"?>
<!DOCTYPE svg PUBLIC "-//W3C//DTD SVG 20010904//EN"
 "http://www.w3.org/TR/2001/REC-SVG-20010904/DTD/svg10.dtd">
<svg version="1.0" xmlns="http://www.w3.org/2000/svg"
 width="400.000000pt" height="400.000000pt" viewBox="0 0 400.000000 400.000000"
 preserveAspectRatio="xMidYMid meet">
<metadata>
Created by potrace 1.11, written by Peter Selinger 2001-2013
</metadata>
<g transform="translate(0.000000,400.000000) scale(0.100000,-0.100000)"
fill="#000000" stroke="none">
<path d="M0 2000 l0 -2000 2000 0 2000 0 0 2000 0 2000 -2000 0 -2000 0 0
-2000z m1335 535 c37 -18 55 -51 55 -100 0 -53 -230 -504 -270 -528 -39 -24
-81 -15 -115 25 -46 55 -38 83 92 336 121 236 135 259 168 273 28 11 33 11 70
-6z m1509 -9 c30 -13 46 -39 160 -257 82 -159 126 -255 126 -275 0 -70 -78
-113 -146 -81 -29 14 -47 44 -151 249 -65 128 -122 245 -127 260 -13 40 1 76
37 98 38 24 56 25 101 6z m-569 -10 c35 -15 65 -59 65 -97 0 -12 -44 -105 -97
-207 -54 -103 -102 -198 -107 -212 -14 -40 -246 -478 -266 -502 -13 -17 -29
-23 -60 -23 -35 0 -47 6 -71 33 -45 50 -40 84 35 226 35 67 100 191 144 276
157 304 243 465 260 484 14 15 41 31 60 35 1 1 18 -5 37 -13z m-620 -1776 c7
-11 -12 -51 -29 -62 -26 -17 -41 -8 -44 27 -2 32 0 35 17 26 14 -8 20 -7 25 4
6 17 22 20 31 5z m112 -15 c1 -16 1 -16 -3 -2 -3 9 -9 15 -14 12 -5 -3 -7 -12
-3 -20 3 -8 0 -15 -5 -15 -6 0 -9 9 -7 20 2 11 0 18 -6 15 -5 -4 -9 -13 -9
-22 0 -9 -3 -14 -6 -10 -3 3 -3 15 1 27 9 27 49 24 52 -5z m58 5 c7 -23 -10
-50 -31 -50 -9 0 -14 12 -14 35 0 28 4 35 19 35 11 0 23 -9 26 -20z m228 12
c3 7 5 -5 6 -27 0 -29 -3 -35 -8 -20 -8 19 -8 19 -19 0 -10 -17 -11 -15 -12
19 0 32 2 36 14 27 11 -9 15 -9 19 1z m180 -54 c8 -5 6 -8 -5 -8 -14 0 -18 8
-17 38 2 34 2 34 6 7 3 -16 10 -33 16 -37z m53 42 c9 0 14 -10 13 -27 -2 -24
-2 -25 -6 -5 -2 12 -8 22 -13 22 -5 0 -11 -10 -13 -22 -2 -13 -5 -5 -5 17 0
22 2 34 5 28 2 -7 11 -13 19 -13z m-406 -15 c0 -8 -8 -15 -17 -16 -15 0 -15
-2 2 -9 19 -8 19 -9 -2 -9 -18 -1 -23 5 -23 24 0 18 5 25 20 25 11 0 20 -7 20
-15z m46 -32 c-8 -8 -12 -3 -21 27 l-7 25 17 -23 c9 -13 14 -26 11 -29z m194
22 c0 -18 -5 -25 -20 -25 -15 0 -20 7 -20 25 0 18 5 25 20 25 15 0 20 -7 20
-25z m60 0 c0 -18 -5 -25 -20 -25 -11 0 -20 7 -20 15 0 8 5 15 11 15 5 0 7 -4
4 -10 -3 -5 -1 -10 4 -10 18 0 12 28 -6 33 -14 4 -12 5 5 6 17 1 22 -4 22 -24z
m-433 -21 c-3 -3 -12 -4 -19 -1 -8 3 -5 6 6 6 11 1 17 -2 13 -5z m246 -11 c-7
-2 -19 -2 -25 0 -7 3 -2 5 12 5 14 0 19 -2 13 -5z"/>
<path d="M1790 715 c0 -14 4 -25 9 -25 12 0 19 21 13 38 -8 21 -22 13 -22 -13z"/>
<path d="M2090 705 c0 -8 5 -15 10 -15 6 0 10 7 10 15 0 8 -4 15 -10 15 -5 0
-10 -7 -10 -15z"/>
</g>
</svg>
