<svg version="1" xmlns="http://www.w3.org/2000/svg" width="933.333" height="933.333" viewBox="0 0 700.000000 700.000000"><path d="M0 350v350h700V0H0v350zm626.3-205c4.8 3.8 4.6 17.4-.3 20-2.6 1.4-549.4 1.4-552 0-4.9-2.6-5.1-16.2-.3-20 2.6-2 2.8-2 276.3-2s273.7 0 276.3 2zm-451.2 64.7c1.5 1.4 2.3 3.8 2.7 7.2.6 6.1-.2 9.5-2.8 12.1-1.9 1.9-3.5 2-51.4 2H74.1l-2-2.6c-1.6-2.1-2.1-4.1-2.1-8.8 0-6.6 1.6-10.1 5.4-11.6 1.1-.5 23.6-.8 49.8-.7 47.5.2 47.8.2 49.9 2.4zm139.4.8c2.2 2.1 2.5 3.3 2.5 9s-.3 6.9-2.5 9l-2.4 2.5h-96l-2.8-2.4c-2.5-2.2-2.8-3-2.8-8.9 0-5.5.4-6.9 2.4-9.1l2.4-2.6h96.8l2.4 2.5zm312.4-.6c4 4 4 14.5 0 18.7l-2.2 2.4H355.3l-2.2-2.4c-4-4.2-4-14.7 0-18.7 1.9-1.9 4.5-1.9 136.9-1.9s135 0 136.9 1.9zm-492.4 64.6c2.2 2.1 2.5 3.3 2.5 9.5s-.3 7.4-2.5 9.5l-2.4 2.5H74.9l-2.4-2.5c-2.2-2.1-2.5-3.3-2.5-9.5s.3-7.4 2.5-9.5l2.4-2.5h57.2l2.4 2.5zm393.1.8c1.9 2.2 2.4 3.9 2.4 8.2 0 6.5-1.4 9.9-4.7 11.4-1.7.8-50.7 1.1-175.3 1.1-124.6 0-173.6-.3-175.3-1.1-3.3-1.5-4.7-4.9-4.7-11.2 0-5.7 1.8-9.3 5.4-10.7 1.1-.5 79.3-.8 175.9-.7l173.9.2 2.4 2.8zm99.9-.8c2.2 2.1 2.5 3.3 2.5 9.5s-.3 7.4-2.5 9.5l-2.4 2.5h-57.2l-2.4-2.5c-2.2-2.1-2.5-3.3-2.5-9.5s.3-7.4 2.5-9.5l2.4-2.5h57.2l2.4 2.5zm-492.8 64.7c2 1.8 2.3 3.1 2.3 8.9 0 13.1.5 12.9-34 12.9H75.8l-2.9-2.9c-2.6-2.6-2.9-3.6-2.9-9.4 0-5 .5-7 2.1-9.1l2-2.6h29.2c28.5 0 29.1 0 31.4 2.2zm292.7-.1c2.4 1.9 2.6 2.6 2.6 9.4 0 12.9 15.7 11.5-129.7 11.5H174.9l-2.4-2.5c-2.2-2.1-2.5-3.3-2.5-9s.3-6.9 2.5-9l2.4-2.5h124.9c124.9 0 124.9 0 127.6 2.1zm100.3.1c2 1.8 2.3 3.1 2.3 8.9 0 13.1.5 12.9-34 12.9h-27.2l-2.9-2.9c-2.6-2.6-2.9-3.6-2.9-9.4 0-5 .5-7 2.1-9.1l2-2.6h29.2c28.5 0 29.1 0 31.4 2.2zm100.2.4c1.6 2.1 2.1 4.1 2.1 9.1 0 5.8-.3 6.8-2.9 9.4l-2.9 2.9H597c-34.4 0-34 .2-34-12.8 0-5.4.4-7 2.2-8.9l2.1-2.3h58.6l2 2.6zm-212.8 64.3c2.9 3.6 2.7 15.6-.3 18.8l-2.1 2.3h-57.8l-2.4-2.5c-2.1-2-2.5-3.4-2.5-8.4 0-6.9 1.3-10.4 4.4-12 1.3-.6 12.1-.9 30.4-.8l28.4.2 1.9 2.4zm210.2-1.7c3.7 1.9 4.6 4.1 4.7 10.9 0 5.2-.4 7.2-2.1 9.3l-2 2.6H454.6l-2.3-2.2c-2-1.9-2.3-3.1-2.3-9.5 0-6.5.3-7.7 2.5-9.8l2.4-2.5H539c62 0 84.7.3 86.3 1.2zm-310.3 2c1.6 1.7 2 3.5 2 9 0 6-.3 7.2-2.5 9.3l-2.4 2.5h-236l-2.8-2.4c-2.6-2.2-2.8-3-2.8-9.6 0-12.3-14.2-11 123.6-11h118.8l2.1 2.2zm-59.3 64c2 1.9 2.3 3.1 2.3 9.5 0 6.5-.3 7.7-2.5 9.8l-2.4 2.5h-88c-62.4 0-88.7-.3-90.4-1.1-3.4-1.5-4.7-4.9-4.7-12 0-5 .4-6.4 2.5-8.4l2.4-2.5h178.5l2.3 2.2zm123.4.7c2.6 2.6 2.9 3.6 2.9 9 0 4.9-.4 6.5-2.4 8.8l-2.4 2.8h-81.1l-2.3-2.2c-1.7-1.8-2.3-3.7-2.6-8.7-.4-6.2-.3-6.7 2.6-9.6l3-3h79.4l2.9 2.9zm247.6-.5c2.6 2.2 2.8 3 2.8 9.5 0 6-.3 7.4-2.3 9.3l-2.3 2.3H419.8l-2.4-2.8c-2-2.3-2.4-3.9-2.4-9.1 0-6.3.9-8.5 4.5-10.4 1.4-.8 31.9-1.1 103.2-1.2h101.2l2.8 2.4zm-451.5 64.4c2 1.9 2.3 3.3 2.3 9.7 0 6.4-.3 7.8-2.3 9.7l-2.3 2.3H74.8l-2.4-2.8c-2-2.3-2.4-3.9-2.4-9 0-6.7 1.6-10.2 5.4-11.7 1.1-.5 23.6-.8 49.8-.7l47.7.2 2.3 2.3zm238.8 0c1.6 1.3 2.4 3.2 2.8 7 .6 6.2-.2 9.6-2.8 12.2-2 2-3.8 2-100.3 2h-98.4l-2.4-2.6c-2-2.2-2.4-3.6-2.4-8.9 0-5.3.4-6.7 2.4-8.9l2.4-2.6h98.3c93.3 0 98.3.1 100.4 1.8zm212-.8c5.1 2.7 5.3 16.8.2 20.6-1.4 1.1-18.5 1.3-86.5 1.4h-84.8l-2.4-2.5c-2.2-2.1-2.5-3.3-2.5-9s.3-6.9 2.5-9l2.4-2.5h84.6c53.3 0 85.3.4 86.5 1z"/></svg>