<svg width="260" height="260" viewBox="0 0 260 260" fill="none" xmlns="http://www.w3.org/2000/svg">
<rect width="260" height="260" fill="#303030"/>
<g filter="url(#filter0_d)">
<path d="M26 56C26 54.3431 27.3431 53 29 53H231C232.657 53 234 54.3431 234 56V59C234 60.6569 232.657 62 231 62H29C27.3431 62 26 60.6569 26 59V56Z" fill="#33A5ED"/>
<path d="M26 80C26 78.3431 27.3431 77 29 77H63C64.6569 77 66 78.3431 66 80V83C66 84.6569 64.6569 86 63 86H29C27.3431 86 26 84.6569 26 83V80Z" fill="#F7DF8B"/>
<path d="M26 104C26 102.343 27.3431 101 29 101H48C49.6569 101 51 102.343 51 104V107C51 108.657 49.6569 110 48 110H29C27.3431 110 26 108.657 26 107V104Z" fill="#DDEDFC"/>
<path d="M130 152C130 150.343 131.343 149 133 149H152C153.657 149 155 150.343 155 152V155C155 156.657 153.657 158 152 158H133C131.343 158 130 156.657 130 155V152Z" fill="#DDEDFC"/>
<path d="M108 176C108 174.343 109.343 173 111 173H139C140.657 173 142 174.343 142 176V179C142 180.657 140.657 182 139 182H111C109.343 182 108 180.657 108 179V176Z" fill="#33A5ED"/>
<path d="M78 200C78 198.343 79.3431 197 81 197H152C153.657 197 155 198.343 155 200V203C155 204.657 153.657 206 152 206H81C79.3431 206 78 204.657 78 203V200Z" fill="#33A5ED"/>
<path d="M26 128C26 126.343 27.3431 125 29 125H48C49.6569 125 51 126.343 51 128V131C51 132.657 49.6569 134 48 134H29C27.3431 134 26 132.657 26 131V128Z" fill="#DDEDFC"/>
<path d="M209 104C209 102.343 210.343 101 212 101H231C232.657 101 234 102.343 234 104V107C234 108.657 232.657 110 231 110H212C210.343 110 209 108.657 209 107V104Z" fill="#DDEDFC"/>
<path d="M167 152C167 150.343 168.343 149 170 149H231C232.657 149 234 150.343 234 152V155C234 156.657 232.657 158 231 158H170C168.343 158 167 156.657 167 155V152Z" fill="white"/>
<path d="M154 176C154 174.343 155.343 173 157 173H231C232.657 173 234 174.343 234 176V179C234 180.657 232.657 182 231 182H157C155.343 182 154 180.657 154 179V176Z" fill="#E28181"/>
<path d="M167 200C167 198.343 168.343 197 170 197H231C232.657 197 234 198.343 234 200V203C234 204.657 232.657 206 231 206H170C168.343 206 167 204.657 167 203V200Z" fill="#E28181"/>
<path d="M209 128C209 126.343 210.343 125 212 125H231C232.657 125 234 126.343 234 128V131C234 132.657 232.657 134 231 134H212C210.343 134 209 132.657 209 131V128Z" fill="#DDEDFC"/>
<path d="M172 128C172 126.343 173.343 125 175 125H194C195.657 125 197 126.343 197 128V131C197 132.657 195.657 134 194 134H175C173.343 134 172 132.657 172 131V128Z" fill="#F7DF8B"/>
<path d="M78 80C78 78.3431 79.3431 77 81 77H115C116.657 77 118 78.3431 118 80V83C118 84.6569 116.657 86 115 86H81C79.3431 86 78 84.6569 78 83V80Z" fill="#33A5ED"/>
<path d="M130 80C130 78.3431 131.343 77 133 77H231C232.657 77 234 78.3431 234 80V83C234 84.6569 232.657 86 231 86H133C131.343 86 130 84.6569 130 83V80Z" fill="#E28181"/>
<path d="M63 104C63 102.343 64.3431 101 66 101H194C195.657 101 197 102.343 197 104V107C197 108.657 195.657 110 194 110H66C64.3431 110 63 108.657 63 107V104Z" fill="#E28181"/>
<path d="M26 152C26 150.343 27.3431 149 29 149H115C116.657 149 118 150.343 118 152V155C118 156.657 116.657 158 115 158H29C27.3431 158 26 156.657 26 155V152Z" fill="#E28181"/>
<path d="M26 176C26 174.343 27.3431 173 29 173H93C94.6569 173 96 174.343 96 176V179C96 180.657 94.6569 182 93 182H29C27.3431 182 26 180.657 26 179V176Z" fill="#F7DF8B"/>
<path d="M26 200C26 198.343 27.3431 197 29 197H63C64.6569 197 66 198.343 66 200V203C66 204.657 64.6569 206 63 206H29C27.3431 206 26 204.657 26 203V200Z" fill="#DDEDFC"/>
<path d="M63 128C63 126.343 64.3431 125 66 125H157C158.657 125 160 126.343 160 128V131C160 132.657 158.657 134 157 134H66C64.3431 134 63 132.657 63 131V128Z" fill="#E28181"/>
</g>
<defs>
<filter id="filter0_d" x="22" y="53" width="216" height="161" filterUnits="userSpaceOnUse" color-interpolation-filters="sRGB">
<feFlood flood-opacity="0" result="BackgroundImageFix"/>
<feColorMatrix in="SourceAlpha" type="matrix" values="0 0 0 0 0 0 0 0 0 0 0 0 0 0 0 0 0 0 127 0"/>
<feOffset dy="4"/>
<feGaussianBlur stdDeviation="2"/>
<feColorMatrix type="matrix" values="0 0 0 0 0 0 0 0 0 0 0 0 0 0 0 0 0 0 0.25 0"/>
<feBlend mode="normal" in2="BackgroundImageFix" result="effect1_dropShadow"/>
<feBlend mode="normal" in="SourceGraphic" in2="effect1_dropShadow" result="shape"/>
</filter>
</defs>
</svg>
